<svg width="60" height="60" viewBox="0 0 60 60" fill="none" xmlns="http://www.w3.org/2000/svg">
<circle cx="30" cy="30" r="30" fill="white"/>
<path d="M22.42 37.12C21.3533 37.12 20.3667 36.9467 19.46 36.6C18.5667 36.24 17.7867 35.74 17.12 35.1C16.4667 34.46 15.9533 33.7067 15.58 32.84C15.22 31.9733 15.04 31.0267 15.04 30C15.04 28.9733 15.22 28.0267 15.58 27.16C15.9533 26.2933 16.4733 25.54 17.14 24.9C17.8067 24.26 18.5867 23.7667 19.48 23.42C20.3867 23.06 21.3733 22.88 22.44 22.88C23.5067 22.88 24.48 23.0467 25.36 23.38C26.2533 23.7133 27.0133 24.22 27.64 24.9L26.72 25.84C26.1333 25.2533 25.4867 24.8333 24.78 24.58C24.0733 24.3267 23.3133 24.2 22.5 24.2C21.6333 24.2 20.8333 24.3467 20.1 24.64C19.38 24.92 18.7467 25.3267 18.2 25.86C17.6667 26.38 17.2467 26.9933 16.94 27.7C16.6467 28.3933 16.5 29.16 16.5 30C16.5 30.8267 16.6467 31.5933 16.94 32.3C17.2467 33.0067 17.6667 33.6267 18.2 34.16C18.7467 34.68 19.38 35.0867 20.1 35.38C20.8333 35.66 21.6267 35.8 22.48 35.8C23.28 35.8 24.0333 35.68 24.74 35.44C25.46 35.2 26.12 34.7933 26.72 34.22L27.56 35.34C26.8933 35.9267 26.1133 36.3733 25.22 36.68C24.3267 36.9733 23.3933 37.12 22.42 37.12ZM26.14 35.16V30H27.56V35.34L26.14 35.16ZM37.4608 37.12C36.4074 37.12 35.4274 36.9467 34.5208 36.6C33.6274 36.24 32.8474 35.74 32.1808 35.1C31.5274 34.4467 31.0141 33.6933 30.6408 32.84C30.2808 31.9733 30.1008 31.0267 30.1008 30C30.1008 28.9733 30.2808 28.0333 30.6408 27.18C31.0141 26.3133 31.5274 25.56 32.1808 24.92C32.8474 24.2667 33.6274 23.7667 34.5208 23.42C35.4141 23.06 36.3941 22.88 37.4608 22.88C38.5141 22.88 39.4874 23.06 40.3808 23.42C41.2741 23.7667 42.0474 24.26 42.7008 24.9C43.3674 25.54 43.8808 26.2933 44.2408 27.16C44.6141 28.0267 44.8008 28.9733 44.8008 30C44.8008 31.0267 44.6141 31.9733 44.2408 32.84C43.8808 33.7067 43.3674 34.46 42.7008 35.1C42.0474 35.74 41.2741 36.24 40.3808 36.6C39.4874 36.9467 38.5141 37.12 37.4608 37.12ZM37.4608 35.8C38.3008 35.8 39.0741 35.66 39.7808 35.38C40.5008 35.0867 41.1208 34.68 41.6408 34.16C42.1741 33.6267 42.5874 33.0133 42.8808 32.32C43.1741 31.6133 43.3208 30.84 43.3208 30C43.3208 29.16 43.1741 28.3933 42.8808 27.7C42.5874 26.9933 42.1741 26.38 41.6408 25.86C41.1208 25.3267 40.5008 24.92 39.7808 24.64C39.0741 24.3467 38.3008 24.2 37.4608 24.2C36.6208 24.2 35.8408 24.3467 35.1208 24.64C34.4008 24.92 33.7741 25.3267 33.2408 25.86C32.7208 26.38 32.3074 26.9933 32.0008 27.7C31.7074 28.3933 31.5608 29.16 31.5608 30C31.5608 30.8267 31.7074 31.5933 32.0008 32.3C32.3074 33.0067 32.7208 33.6267 33.2408 34.16C33.7741 34.68 34.4008 35.0867 35.1208 35.38C35.8408 35.66 36.6208 35.8 37.4608 35.8Z" fill="black"/>
</svg>
